<svg id="Camada_1" data-name="Camada 1" xmlns="http://www.w3.org/2000/svg" viewBox="0 0 950 195"><defs><style>.cls-1{fill:none;}.cls-2{fill:#fff;}</style></defs><title>logo-unicred-branco</title><rect class="cls-1" x="-8.5" y="-6.03" width="967.01" height="211.42"/><polygon class="cls-2" points="225.72 48.43 225.72 133.44 157.24 48.43 139.17 48.43 139.17 164.35 157.76 164.35 157.76 79.57 226.38 164.35 245.28 164.35 245.28 48.43 225.72 48.43"/><rect class="cls-2" x="266.72" y="48.43" width="24.05" height="115.92"/><path class="cls-2" d="M929.38,114.25,882.17,32.71l-.4-.68a.66.66,0,0,0-.07-.13,6.16,6.16,0,0,0-4.64-2.65l-.44,0a2.8,2.8,0,0,0-.38,0H816.51a3.39,3.39,0,0,0-.64.08h-.06l-.28.06-.35.09-.14,0a9.34,9.34,0,0,0-3.88,2.7L735.5,113.92a4.77,4.77,0,0,0-.45.46c-.09.12-.19.26-.3.41a3,3,0,0,0,2.38,4.54h36.1a1,1,0,0,1,1,1,.92.92,0,0,1-.25.63h0l-36.34,38.9c-.11.11-.21.23-.31.34a4.11,4.11,0,0,0-.6,1,2.62,2.62,0,0,0-.15.8,2.44,2.44,0,0,0,1,2,3.49,3.49,0,0,0,1.6.51l.43,0h24.55a6.09,6.09,0,0,0,4.16-1.78.49.49,0,0,0,.11-.09l38.34-41.3a1.07,1.07,0,0,0,.4-.83,1.1,1.1,0,0,0-1.1-1.1s-20.78,0-20.78,0a1.08,1.08,0,0,1-1-1.07,1.06,1.06,0,0,1,.26-.7v0L825,74a3.47,3.47,0,0,1,.46-.42,2.77,2.77,0,0,1,4.35.41s22.9,39.55,22.9,39.55l2.35,4.05a.06.06,0,0,1,0,0l.1.17h0a1,1,0,0,1,.08.41,1.07,1.07,0,0,1-1,1.08l-21.12,0a1.45,1.45,0,0,0-1.39,1.44,1.73,1.73,0,0,0,.31.9l22.86,39.56.17.28a6,6,0,0,0,4.57,2.89h47.82a5.36,5.36,0,0,0,1.54-.23,3.44,3.44,0,0,0,1.9-4.5l-.44-.74-22.21-38.18a2.34,2.34,0,0,1-.1-.47h0a.93.93,0,0,1,.94-.94h0a.89.89,0,0,1,.24,0H927a2.91,2.91,0,0,0,.89-.14h0l.28-.11a.26.26,0,0,0,.09,0h0a.31.31,0,0,0,.08,0l.35-.21.06-.06a2.76,2.76,0,0,0,.3-.26l.11-.12.23-.27.19-.28c.07-.14.15-.27.21-.41s.09-.27.13-.41A3.94,3.94,0,0,0,929.38,114.25Zm-72.8-43.47h0l0,0H799.24a1.07,1.07,0,0,1-1-1.07,1.06,1.06,0,0,1,.27-.72h0L832.28,32.5a4.4,4.4,0,0,1,.86-.71,2.8,2.8,0,0,1,1.63-.53h.12a1.2,1.2,0,0,1,.2,0,2.76,2.76,0,0,1,2,1.2s20.71,36.1,20.71,36.1a.19.19,0,0,1,0,.07,1.32,1.32,0,0,1,.18.68A1.43,1.43,0,0,1,856.58,70.78Z"/><polygon class="cls-2" points="601.87 48.3 538.57 48.3 516.88 164.3 586.47 164.3 590.11 144.59 552.01 144.59 557.8 113.6 588.79 113.6 592.42 93.88 561.44 93.88 566.26 68.02 598.23 68.02 601.87 48.3 601.87 48.3"/><path class="cls-2" d="M661.94,48.3H621.52l-21.72,116h39.27c37.94,0,70.77-25.51,70.77-67.3C709.84,68.18,693.26,48.3,661.94,48.3Zm-18.72,96.29h-8.29L649.18,68h8.63c12.59,0,19.88,14.43,19.88,29.34C677.69,128.16,657.81,144.59,643.23,144.59Z"/><path class="cls-2" d="M364.2,144.59c-12.61,0-19.89-14.44-19.89-29.34C344.3,84.45,364.2,68,378.77,68H418l3.68-19.72H382.92c-37.94,0-70.76,25.51-70.76,67.29,0,28.84,16.57,48.71,47.9,48.71h40.07l3.64-19.71Z"/><path class="cls-2" d="M489.55,112.75c10.78-5.31,24.53-14.74,24.53-34.95,0-12.28-8.13-29.51-32.65-29.51H435.06l-21.71,116h31.32l8.27-43.91h9l11.79,43.93h34.38ZM465.7,100.68h-9.44L462.55,68h8.13c6.63,0,12.24,6.79,12.24,13.75C482.93,92.53,474.16,100.68,465.7,100.68Z"/><path class="cls-2" d="M94,48.39v63.52c-.54,25.92-5.56,41-24.85,41h-.49c-19.29,0-24.32-15-24.85-41V48.39H20v70.84c0,25.12,9.27,40.17,30.61,45.15a81.9,81.9,0,0,0,16.71,1.39h3.23c10.68,0,15.72-1.41,15.72-1.41,22.38-4.49,31.59-20,31.59-45.14V48.39Z"/></svg>