<?xml version="1.0" encoding="utf-8"?>
<!-- Generator: Adobe Illustrator 21.0.0, SVG Export Plug-In . SVG Version: 6.00 Build 0)  -->
<svg version="1.1" id="Camada_1" xmlns="http://www.w3.org/2000/svg" xmlns:xlink="http://www.w3.org/1999/xlink" x="0px" y="0px"
	 viewBox="0 0 266 195" style="enable-background:new 0 0 266 195;" xml:space="preserve">
<style type="text/css">
	.st0{fill:#FFFFFF;}
</style>
<title>logo-unicred-verde</title>
<path class="st0" d="M247.4-108.1L191.8-204l-0.5-0.8c0-0.1,0-0.1-0.1-0.2c-1.3-1.8-3.3-3-5.5-3.1h-0.5h-0.4h-70.3
	c-0.3,0-0.5,0-0.8,0.1h-0.1l-0.3,0.1l-0.4,0.1h-0.2c-1.8,0.6-3.3,1.7-4.6,3.2l-89,96.2c-0.2,0.2-0.4,0.3-0.5,0.5
	c-0.1,0.1-0.2,0.3-0.4,0.5c-1,1.7-0.5,3.8,1.2,4.8c0.5,0.3,1,0.5,1.6,0.5h42.5c0.6,0,1.2,0.5,1.2,1.2c0,0.3-0.1,0.5-0.3,0.7l0,0
	L21.6-54.4c-0.1,0.1-0.2,0.3-0.4,0.4c-0.3,0.4-0.5,0.8-0.7,1.2c-0.1,0.3-0.2,0.6-0.2,0.9c0,0.9,0.4,1.8,1.2,2.4
	c0.6,0.4,1.2,0.6,1.9,0.6h0.5H53c1.8,0,3.6-0.8,4.9-2.1l0.1-0.1l45.1-48.6c0.3-0.2,0.5-0.6,0.5-1c0-0.7-0.6-1.3-1.3-1.3H77.9
	c-0.7,0-1.2-0.6-1.2-1.3c0-0.3,0.1-0.6,0.3-0.8l0,0l47.6-51.3c0.2-0.2,0.3-0.3,0.5-0.5c1.2-1.3,3.3-1.4,4.6-0.1
	c0.2,0.2,0.4,0.4,0.5,0.6l26.9,46.5l2.8,4.8l0,0l0.1,0.2l0,0c0.1,0.2,0.1,0.3,0.1,0.5c0,0.7-0.5,1.2-1.2,1.3h-24.8
	c-0.9,0-1.6,0.8-1.6,1.7c0,0.4,0.1,0.7,0.4,1.1l26.9,46.5l0.2,0.3c1.2,1.9,3.1,3.2,5.4,3.4h56.3c0.6,0,1.2-0.1,1.8-0.3
	c2.1-0.8,3.1-3.2,2.2-5.3l0,0l-0.5-0.9L199-100.5c-0.1-0.2-0.1-0.4-0.1-0.6l0,0c0-0.6,0.5-1.1,1.1-1.1l0,0l0,0c0.1,0,0.2,0,0.3,0
	h44.3c0.4,0,0.7-0.1,1-0.2l0,0l0.3-0.1h0.1l0,0h0.1l0.4-0.2l0.1-0.1c0.1-0.1,0.2-0.2,0.4-0.3l0.1-0.1l0.3-0.3l0.2-0.3
	c0.1-0.2,0.2-0.3,0.2-0.5c0.1-0.2,0.1-0.3,0.2-0.5C248.2-106,248-107.1,247.4-108.1z M161.7-159.2L161.7-159.2L161.7-159.2H94.3
	c-0.7,0-1.2-0.6-1.2-1.3c0-0.3,0.1-0.6,0.3-0.8l0,0l39.7-42.9c0.3-0.3,0.6-0.6,1-0.8c0.6-0.4,1.2-0.6,1.9-0.6h0.1c0.1,0,0.2,0,0.2,0
	c1,0.1,1.8,0.6,2.4,1.4l24.4,42.5v0.1c0.1,0.2,0.2,0.5,0.2,0.8C163.4-160,162.7-159.2,161.7-159.2
	C161.8-159.2,161.7-159.2,161.7-159.2z"/>
<path d="M247.4,117.9L191.8,22l-0.5-0.8c0-0.1,0-0.1-0.1-0.2c-1.3-1.8-3.3-3-5.5-3.1h-0.5h-0.4h-70.3c-0.3,0-0.5,0-0.8,0.1h-0.1
	l-0.3,0.1l-0.4,0.1h-0.2c-1.8,0.6-3.3,1.7-4.6,3.2l-89,96.2c-0.2,0.2-0.4,0.3-0.5,0.5c-0.1,0.1-0.2,0.3-0.4,0.5
	c-1,1.7-0.5,3.8,1.2,4.8c0.5,0.3,1,0.5,1.6,0.5h42.5c0.6,0,1.2,0.5,1.2,1.2c0,0.3-0.1,0.5-0.3,0.7l0,0l-42.8,45.8
	c-0.1,0.1-0.2,0.3-0.4,0.4c-0.3,0.4-0.5,0.8-0.7,1.2c-0.1,0.3-0.2,0.6-0.2,0.9c0,0.9,0.4,1.8,1.2,2.4c0.6,0.4,1.2,0.6,1.9,0.6h0.5
	H53c1.8,0,3.6-0.8,4.9-2.1l0.1-0.1l45.1-48.6c0.3-0.2,0.5-0.6,0.5-1c0-0.7-0.6-1.3-1.3-1.3H77.9c-0.7,0-1.2-0.6-1.2-1.3
	c0-0.3,0.1-0.6,0.3-0.8l0,0l47.6-51.3c0.2-0.2,0.3-0.3,0.5-0.5c1.2-1.3,3.3-1.4,4.6-0.1c0.2,0.2,0.4,0.4,0.5,0.6l26.9,46.5l2.8,4.8
	l0,0l0.1,0.2l0,0c0.1,0.2,0.1,0.3,0.1,0.5c0,0.7-0.5,1.2-1.2,1.3h-24.8c-0.9,0-1.6,0.8-1.6,1.7c0,0.4,0.1,0.7,0.4,1.1l26.9,46.5
	l0.2,0.3c1.2,1.9,3.1,3.2,5.4,3.4h56.3c0.6,0,1.2-0.1,1.8-0.3c2.1-0.8,3.1-3.2,2.2-5.3l0,0l-0.5-0.9L199,125.5
	c-0.1-0.2-0.1-0.4-0.1-0.6l0,0c0-0.6,0.5-1.1,1.1-1.1l0,0l0,0c0.1,0,0.2,0,0.3,0h44.3c0.4,0,0.7-0.1,1-0.2l0,0l0.3-0.1h0.1l0,0h0.1
	l0.4-0.2l0.1-0.1c0.1-0.1,0.2-0.2,0.4-0.3l0.1-0.1l0.3-0.3l0.2-0.3c0.1-0.2,0.2-0.3,0.2-0.5c0.1-0.2,0.1-0.3,0.2-0.5
	C248.2,120,248,118.9,247.4,117.9z M161.7,66.8L161.7,66.8L161.7,66.8H94.3c-0.7,0-1.2-0.6-1.2-1.3c0-0.3,0.1-0.6,0.3-0.8l0,0
	l39.7-42.9c0.3-0.3,0.6-0.6,1-0.8c0.6-0.4,1.2-0.6,1.9-0.6h0.1c0.1,0,0.2,0,0.2,0c1,0.1,1.8,0.6,2.4,1.4l24.4,42.5v0.1
	c0.1,0.2,0.2,0.5,0.2,0.8C163.4,66,162.7,66.8,161.7,66.8C161.8,66.8,161.7,66.8,161.7,66.8z"/>
</svg>
