<svg id="Layer_1" enable-background="new 0 0 508.947 508.947" height="512" viewBox="0 0 508.947 508.947" width="512" xmlns="http://www.w3.org/2000/svg"><g><g><path d="m16.263 420.37c-9.695 28.427-13.445 62.327-16.263 88.568l63.293-34.367 31.809-60.735-3.243-26.787-33.507-9.964c-5.072 1.351-9.932 3.36-14.474 5.988-15.384 8.9-21.839 20.359-27.615 37.297z" fill="#ffd845"/><path d="m88.567 492.674c16.963-5.785 28.406-12.249 37.297-27.615 2.628-4.541 4.638-9.401 5.988-14.473l-5.964-31.204-30.787-5.547c-11.497 11.498-83.528 83.53-95.101 95.103 16.067-1.726 56.392-5.291 88.567-16.264z" fill="#ffb454"/><path d="m138.222 320.715-46.363-14.849c-11.075 11.074-42.221 42.219-52.363 52.361 6.727 6.728 48.836 48.837 55.606 55.607l42.453-12.62 9.91-39.742z" fill="#565686"/><path d="m194.889 377.084-47.424-15.611c-10.335 10.334-42.361 42.36-52.363 52.362 6.728 6.727 48.836 48.836 55.606 55.607 9.854-9.853 42.13-42.129 52.363-52.362z" fill="#454572"/><path d="m335.092 322.048c-.101.09-82.904 73.827-96.203 85.669v87.331c12.122-.116 18.674.35 30-.698 87.282-8.07 150-85.353 150-171.581 0-14.801 0-31.777 0-46.578z" fill="#2ebeef"/><path d="m232.746 90.048c-14.801 0-31.777 0-46.578 0-86.584 0-163.54 63.033-171.581 150-1.047 11.324-.582 17.87-.698 30h87.331c101.888-117.148 79.073-90.915 82.336-94.666z" fill="#00e4ef"/><path d="m358.067 22.168c-128.402 44.081-240.495 153.089-266.209 283.699 6.727 6.727 48.835 48.835 55.606 55.606l143.467-110.989 107.496-139.974-11.283-57.207z" fill="#f9f2f8"/><path d="m398.427 110.51c-7.076 7.076-243.886 243.886-250.962 250.963 6.727 6.727 48.835 48.835 55.606 55.606 66.184-13.029 126.66-48.114 175.981-96.166 48.386-47.142 86.034-106.763 107.798-170.28l-32.949-27.072z" fill="#eceae7"/><path d="m271.482 152.642c-23.431 23.431-23.486 61.327 0 84.814l53.406-31.407 31.406-53.406c-23.402-23.404-61.297-23.516-84.812-.001z" fill="#565686"/><path d="m271.482 237.456c23.403 23.403 61.298 23.514 84.812 0 23.431-23.431 23.486-61.327 0-84.814-10.26 10.262-74.482 74.484-84.812 84.814z" fill="#454572"/><path d="m508.889.048c-7.72.542-35.744-1.85-76.448 4.05-21.601 3.13-46.771 8.595-74.373 18.07 2.549 8.404 2.643 50.625 40.359 88.342l67.128-43.128z" fill="#ff8659"/><path d="m398.427 110.51c36.905 36.904 82.628 38.388 88.424 40.123 9.479-27.668 14.938-52.762 18.056-74.254 5.897-40.65 3.429-68.414 3.982-76.331-6.129 6.129-104.333 104.333-110.462 110.462z" fill="#ff405c"/><path d="m292.686 173.845c-11.711 11.711-11.746 30.661 0 42.407l32.203-10.204 10.203-32.203c-11.702-11.701-30.65-11.757-42.406 0z" fill="#00e4ef"/><path d="m292.686 216.252c11.685 11.684 30.629 11.776 42.406 0 11.709-11.71 11.748-30.659 0-42.407-5.15 5.15-37.238 37.239-42.406 42.407z" fill="#2ebeef"/></g></g></svg>